<svg xmlns="http://www.w3.org/2000/svg" width="256" height="256" viewBox="0 0 256 256"><path fill="#C44820" fill-rule="evenodd" d="M74 88 82 47Q84 38 92 44L111 62Q130 53 150 60L166 45Q173 39 176 47L183 76C204 91 200 114 180 124 163 132 137 127 119 121 99 114 88 123 83 138 72 167 94 194 125 194 146 194 161 185 173 173L206 190C186 216 156 230 120 227 66 224 29 184 33 139 35 115 51 99 74 88Z M180 151Q180 139 191 136C205 132 216 145 212 160L209 175 177 160Z M108 82Q131 68 158 80L157 94Q129 87 111 97Z"/></svg>